<svg width="55" height="71" viewBox="0 0 55 71" fill="none" xmlns="http://www.w3.org/2000/svg">
<path d="M20.3301 8.78821C20.3301 4.56396 24.2517 1.5 27.865 1.5C29.9845 1.5 30.8888 2.25138 30.8888 3.79768C30.8888 11.6758 31.147 15.3674 34.1566 21.5744M22.3108 29.9118C21.3181 29.0355 19.9766 28.5453 18.5797 28.5484C17.1829 28.5516 15.8442 29.0478 14.8564 29.9286C13.8687 30.8094 13.3122 32.0031 13.3087 33.2487C13.3051 34.4943 13.8548 35.6905 14.8376 36.5757L16.7605 38.2251C15.7679 37.3486 14.4265 36.8583 13.0296 36.8612C11.6328 36.8641 10.294 37.3602 9.30607 38.2408C8.31815 39.1214 7.76144 40.315 7.75766 41.5606C7.75389 42.8063 8.30335 44.0025 9.28592 44.8879L11.1549 46.5545C10.1621 45.6782 8.82068 45.188 7.4238 45.1912C6.02691 45.1943 4.68825 45.6905 3.7005 46.5713C2.71275 47.4521 2.15627 48.6458 2.15273 49.8914C2.14919 51.137 2.69889 52.3332 3.68162 53.2185L12.4111 60.9797C20.6667 68.3401 34.0499 68.3401 42.3042 60.9797C50.5584 53.6194 50.5019 41.7358 42.2477 34.3743L34.5637 27.5225L10.9673 6.48136C9.97332 5.61599 8.63685 5.13487 7.24768 5.14229C5.8585 5.14972 4.52859 5.6451 3.54628 6.52103C2.56397 7.39697 2.00842 8.58286 2.00009 9.8216C1.99177 11.0603 2.53133 12.2521 3.50179 13.1385L22.3108 29.9118Z" stroke="#1F2937" stroke-width="3" stroke-linecap="round" stroke-linejoin="round"/>
<path d="M24.1772 10.0125C24.1772 5.65823 28.1945 2.5 31.8959 2.5C34.067 2.5 34.9934 3.2745 34.9934 4.86838C34.9934 12.9889 35.2579 16.7941 38.3409 23.192M26.2062 31.786C25.1893 30.8827 23.8151 30.3774 22.3841 30.3807C20.9532 30.3839 19.5819 30.8954 18.57 31.8033C17.5582 32.7112 16.9881 33.9416 16.9845 35.2256C16.9809 36.5095 17.544 37.7425 18.5507 38.655L20.5205 40.3551C19.5037 39.4517 18.1296 38.9462 16.6987 38.9492C15.2677 38.9523 13.8963 39.4635 12.8843 40.3713C11.8723 41.279 11.302 42.5093 11.2981 43.7933C11.2943 45.0772 11.8571 46.3103 12.8637 47.2229L14.7782 48.9408C13.7612 48.0375 12.3871 47.5323 10.9561 47.5355C9.52515 47.5388 8.15384 48.0502 7.142 48.9581C6.13015 49.866 5.5601 51.0964 5.55648 52.3804C5.55286 53.6643 6.11596 54.8973 7.12266 55.8098L16.0651 63.8099C24.522 71.3967 38.2317 71.3967 46.6872 63.8099C55.1428 56.223 55.0849 43.9738 46.6293 36.3858L38.758 29.3231L14.5861 7.63464C13.5678 6.74264 12.1988 6.24671 10.7757 6.25436C9.35264 6.26202 7.99029 6.77264 6.98402 7.67553C5.97775 8.57842 5.40865 9.8008 5.40012 11.0776C5.39159 12.3545 5.94431 13.5829 6.93845 14.4966L26.2062 31.786Z" stroke="#555A60" stroke-opacity="0.4" stroke-width="3" stroke-linecap="round" stroke-linejoin="round"/>
</svg>
