<svg width="109" height="149" viewBox="0 0 109 149" fill="none" xmlns="http://www.w3.org/2000/svg">
<path d="M40.8125 19.7751C42.7202 11.5891 52.3241 3 60.3335 3C65.0316 3 67.0361 4.65232 67.0361 8.05268C67.0361 25.795 69.6812 31.8728 76.8165 46.1367L89.934 69.1458L40.6189 28.4473L40.8125 19.7751ZM48.0218 65.4784C45.8213 63.5514 42.8478 62.4735 39.7514 62.4804C36.655 62.4874 33.6876 63.5786 31.4981 65.5154C29.3086 67.4523 28.0751 70.0773 28.0673 72.8164C28.0594 75.5556 29.2779 78.186 31.4563 80.1327L35.7187 83.7598C33.5185 81.8324 30.5452 80.754 27.4488 80.7605C24.3524 80.7669 21.3848 81.8577 19.1949 83.7942C17.0051 85.7308 15.7711 88.3556 15.7627 91.0947C15.7543 93.8339 16.9723 96.4645 19.1503 98.4115L23.2931 102.076C21.0926 100.149 18.119 99.0714 15.0226 99.0783C11.9262 99.0853 8.95889 100.176 6.76939 102.113C4.5799 104.05 3.34639 106.675 3.33855 109.414C3.33071 112.153 4.54918 114.784 6.72756 116.731L26.0778 133.798C44.3773 149.984 74.0433 149.984 92.34 133.798C110.637 117.612 110.511 91.4798 92.2147 75.2916L22.8774 13.9542C20.674 12.0512 17.7115 10.9932 14.6322 11.0095C11.5529 11.0259 8.60499 12.1152 6.42755 14.0414C4.25011 15.9676 3.01867 18.5754 3.00021 21.2995C2.98175 24.0235 4.17776 26.6442 6.32894 28.5934L48.0218 65.4784Z" fill="#FDE047"/>
<path d="M48.0218 65.4784C45.8213 63.5514 42.8478 62.4735 39.7514 62.4804C36.655 62.4874 33.6876 63.5786 31.4981 65.5154C29.3086 67.4523 28.0751 70.0773 28.0673 72.8164C28.0594 75.5556 29.2779 78.186 31.4563 80.1327L35.7187 83.7598C33.5185 81.8324 30.5452 80.754 27.4488 80.7605C24.3524 80.7669 21.3848 81.8577 19.1949 83.7942C17.0051 85.7308 15.7711 88.3556 15.7627 91.0947C15.7543 93.8339 16.9723 96.4645 19.1503 98.4115L23.2931 102.076C21.0926 100.149 18.119 99.0714 15.0226 99.0783C11.9262 99.0853 8.95889 100.176 6.76939 102.113C4.5799 104.05 3.34639 106.675 3.33855 109.414C3.33071 112.153 4.54918 114.784 6.72756 116.731L26.0778 133.798C44.3773 149.984 74.0433 149.984 92.34 133.798C110.637 117.612 110.511 91.4798 92.2147 75.2916L22.8774 13.9542C20.674 12.0512 17.7115 10.9932 14.6322 11.0095C11.5529 11.0259 8.60499 12.1152 6.42755 14.0414C4.25011 15.9676 3.01867 18.5754 3.00021 21.2995C2.98175 24.0235 4.17776 26.6442 6.32894 28.5934L48.0218 65.4784Z" fill="#FDE047"/>
<path d="M67.0361 8.05268C67.0361 4.65232 65.0316 3 60.3335 3C52.3241 3 42.7202 11.5891 40.8125 19.7751L40.6189 28.4473L89.934 69.1458L76.8165 46.1367M67.0361 8.05268C67.0361 25.795 69.6812 31.8728 76.8165 46.1367M67.0361 8.05268C67.0361 25.3769 70.1453 32.4874 76.8165 46.1367M48.0218 65.4784C45.8213 63.5514 42.8478 62.4735 39.7514 62.4804C36.655 62.4874 33.6876 63.5786 31.4981 65.5154C29.3086 67.4523 28.0751 70.0773 28.0673 72.8164C28.0594 75.5556 29.2779 78.186 31.4563 80.1327L35.7187 83.7598C33.5185 81.8324 30.5452 80.754 27.4488 80.7605C24.3524 80.7669 21.3848 81.8577 19.1949 83.7942C17.0051 85.7308 15.7711 88.3556 15.7627 91.0947C15.7543 93.8339 16.9723 96.4645 19.1503 98.4115L23.2931 102.076C21.0926 100.149 18.119 99.0714 15.0226 99.0783C11.9262 99.0853 8.95889 100.176 6.76939 102.113C4.5799 104.05 3.34639 106.675 3.33855 109.414C3.33071 112.153 4.54918 114.784 6.72756 116.731L26.0778 133.798C44.3773 149.984 74.0433 149.984 92.34 133.798C110.637 117.612 110.511 91.4798 92.2147 75.2916L22.8774 13.9542C20.674 12.0512 17.7115 10.9932 14.6322 11.0095C11.5529 11.0259 8.60499 12.1152 6.42755 14.0414C4.25011 15.9676 3.01867 18.5754 3.00021 21.2995C2.98175 24.0235 4.17776 26.6442 6.32894 28.5934L48.0218 65.4784Z" stroke="black" stroke-width="5" stroke-linecap="round"/>
</svg>
